#!OML:ASF E:\VariousWalksJay\Project 1\Capture day 1\Session 1\Actor2.ASF
:FULLY-SPECIFIED
:DEGREES
995
root -6.66564 18.3721 -13.0195 202.126 -17.9971 -176.914
lowerback 10.8482 3.86658 13.2514
upperback 4.86302 5.96301 -1.89023
thorax 0.760369 3.14158 -10.006
lowerneck 5.58125 -6.18005 -4.41346
upperneck -11.1052 -7.51767 15.5508
head -3.40249 -4.52822 5.81709
rclavicle 9.54166e-015 -7.95139e-015
rhumerus 84.9582 -30.2637 -28.1767
rradius 23.1052
rwrist -0.185567
rhand 5.44581 -19.0058
rfingers 7.12502
rthumb 30.7951 -46.4461
lclavicle 9.54166e-015 -7.95139e-015
lhumerus 22.5524 -15.2016 27.7399
lradius 124.684
lwrist 28.8629
lhand 36.4312 10.2126
lfingers 7.12502
lthumb 59.3769 24.6308
rfemur -9.71129 -6.00344 23.2285
rtibia 32.9191
rfoot -19.624 -19.6202
rtoes -14.8637
lfemur -65.1322 3.59661 -7.45806
ltibia 80.6875
lfoot -4.18265 -0.91649
ltoes -26.5705
996
root -6.76314 18.3617 -13.2013 201.471 -18.1705 -176.73
lowerback 10.5494 4.54429 13.0892
upperback 4.94027 6.7924 -1.29755
thorax 1.12822 3.56266 -9.2623
lowerneck 5.99414 -6.64705 -4.64451
upperneck -11.026 -8.16126 15.2523
head -3.38477 -4.8083 5.78658
rclavicle -5.08889e-014 -8.74653e-015
rhumerus 79.1857 -29.0063 -21.2778
rradius 26.0534
rwrist -2.84692
rhand 3.84671 -18.3743
rfingers 7.12502
rthumb 29.2693 -46.0914
lclavicle -5.08889e-014 -8.74653e-015
lhumerus 23.0908 -11.2029 24.8734
lradius 125.032
lwrist 31.0983
lhand 37.495 10.1794
lfingers 7.12502
lthumb 60.2882 23.6536
rfemur -7.25514 -6.55923 22.1642
rtibia 36.9473
rfoot -19.1916 -19.9753
rtoes -14.6674
lfemur -64.6077 2.37223 -8.13415
ltibia 74.7048
lfoot -3.28227 -0.0706924
ltoes -26.8211
997
root -6.86695 18.3201 -13.3795 200.592 -18.2863 -176.287
lowerback 10.2884 5.08626 13.1255
upperback 5.04877 7.44725 -0.637472
thorax 1.46591 3.88975 -8.54982
lowerneck 6.25931 -6.98732 -4.9674
upperneck -10.7097 -8.67148 14.9032
head -3.28378 -5.00547 5.73655
rclavicle 1.59028e-015 -2.54444e-014
rhumerus 74.2677 -26.9754 -15.4412
rradius 29.1998
rwrist -4.36193
rhand 0.947081 -17.6191
rfingers 7.12502
rthumb 26.4972 -45.7864
lclavicle 1.59028e-015 -2.54444e-014
lhumerus 23.4679 -6.97303 21.6939
lradius 124.953
lwrist 33.4137
lhand 38.4222 10.2529
lfingers 7.12502
lthumb 61.0749 22.853
rfemur -4.80362 -7.0977 21.0835
rtibia 41.5055
rfoot -18.6267 -19.922
rtoes -14.7788
lfemur -63.6181 1.55684 -8.56334
ltibia 69.0258
lfoot -1.97688 0.462386
ltoes -27.1335
998
root -6.97868 18.2631 -13.5595 199.502 -18.2822 -175.587
lowerback 10.0606 5.49794 13.3762
upperback 5.18089 7.9325 0.0533934
thorax 1.78785 4.12838 -7.91828
lowerneck 6.37701 -7.2075 -5.35244
upperneck -10.1584 -9.05077 14.519
head -3.10083 -5.12624 5.66678
rclavicle 4.6118e-014 -1.59028e-014
rhumerus 70.5554 -24.4805 -11.2623
rradius 32.3606
rwrist -4.83575
rhand -2.95317 -17.0177
rfingers 7.12502
rthumb 22.7589 -45.6953
lclavicle 4.6118e-014 -1.59028e-014
lhumerus 23.7104 -2.67638 18.0959
lradius 124.373
lwrist 35.6975
lhand 39.3798 10.4661
lfingers 7.12502
lthumb 61.8791 22.1097
rfemur -2.34403 -7.49339 19.9328
rtibia 46.4673
rfoot -18.0065 -19.5925
rtoes -14.9706
lfemur -62.1446 1.14548 -8.8089
ltibia 63.7344
lfoot -0.344786 0.856819
ltoes -27.4383
999
root -7.09923 18.1875 -13.7406 198.249 -18.1017 -174.674
lowerback 9.85621 5.79454 13.8036
upperback 5.32209 8.26438 0.741429
thorax 2.09585 4.28802 -7.38295
lowerneck 6.35912 -7.318 -5.77739
upperneck -9.39405 -9.30442 14.1211
head -2.84437 -5.17903 5.58271
rclavicle 1.77316e-013 -1.74931e-014
rhumerus 67.9911 -21.785 -8.83137
rradius 35.4722
rwrist -4.67008
rhand -7.41333 -16.7075
rfingers 7.12502
rthumb 18.4733 -45.8504
lclavicle 1.77316e-013 -1.74931e-014
lhumerus 23.8671 1.50165 14.0252
lradius 123.22
lwrist 37.8078
lhand 40.4457 10.854
lfingers 7.12502
lthumb 62.7636 21.3635
rfemur 0.0911985 -7.60772 18.6489
rtibia 51.738
rfoot -17.3987 -19.1349
rtoes -15.0079
lfemur -60.3225 1.12394 -8.93721
ltibia 59.0174
lfoot 1.28925 1.25469
ltoes -27.2971
1000
root -7.22861 18.0949 -13.9226 196.883 -17.7135 -173.574
lowerback 9.66912 5.99694 14.3843
upperback 5.4539 8.46998 1.41162
thorax 2.38408 4.38249 -6.94715
lowerneck 6.23478 -7.32274 -6.20037
upperneck -8.46829 -9.42745 13.6915
head -2.53872 -5.1661 5.47727
rclavicle -8.26944e-014 1.43125e-014
rhumerus 66.3511 -19.0465 -8.06668
rradius 38.5557
rwrist -4.21378
rhand -11.915 -16.6121
rfingers 7.12502
rthumb 14.1389 -46.1111
lclavicle -8.26944e-014 1.43125e-014
lhumerus 23.9822 5.38051 9.4878
lradius 121.456
lwrist 39.5801
lhand 41.5889 11.3959
lfingers 7.12502
lthumb 63.6985 20.6009
rfemur 2.45954 -7.32638 17.2365
rtibia 57.1913
rfoot -16.8563 -18.6877
rtoes -14.8967
lfemur -58.2564 1.48262 -8.97335
ltibia 55.0388
lfoot 2.62975 1.75898
ltoes -26.8938
